<svg width="806" height="789" viewBox="0 0 806 789" fill="none" xmlns="http://www.w3.org/2000/svg">
<path fill-rule="evenodd" clip-rule="evenodd" d="M528.62 159.991C528.62 183.429 521.404 216.183 508.184 249.544L488.693 230.882C481.245 223.751 468.857 227.714 466.931 237.844L445.58 350.132C443.821 359.38 452.17 367.373 461.332 365.214L572.586 339.001C582.623 336.637 586.043 324.088 578.595 316.958L539.118 279.161C557.742 237.189 568.62 193.202 568.62 159.991C568.62 71.6304 491.613 0 396.62 0C301.627 0 224.62 71.6304 224.62 159.991C224.62 162.402 224.678 164.869 224.791 167.389C238.535 173.322 253.137 181.37 267.824 191.054C265.712 179.632 264.62 169.107 264.62 159.991C264.62 96.399 320.943 40 396.62 40C472.298 40 528.62 96.399 528.62 159.991ZM684.573 452.736C662.282 459.979 628.901 463.238 593.088 460.974L604.813 436.669C609.293 427.382 601.696 416.826 591.467 418.124L478.077 432.517C468.738 433.702 463.716 444.112 468.601 452.159L527.91 549.867C533.26 558.682 546.252 558.057 550.732 548.771L574.479 499.546C620.152 504.288 665.348 501.041 696.934 490.778C780.969 463.473 825.298 368.1 795.943 277.757C766.589 187.413 674.668 136.31 590.632 163.615C588.339 164.36 586.01 165.177 583.649 166.063C582.254 180.968 579.112 197.342 574.44 214.303C584.65 208.765 594.323 204.474 602.992 201.657C663.472 182.006 734.515 218.144 757.901 290.117C781.286 362.091 745.052 433.085 684.573 452.736ZM418.244 607.058C427.157 641.818 440.572 672.558 454.348 691.52C491.727 742.967 570.443 755.489 631.667 711.007C692.892 666.525 705.307 587.791 667.929 536.344C662.571 528.97 655.501 521.096 647.079 513.097C664.653 512.299 681.196 510.227 695.803 506.948C697.376 508.92 698.872 510.883 700.289 512.833C752.227 584.318 732.03 687.532 655.179 743.367C578.328 799.203 473.925 786.516 421.988 715.031C402.467 688.163 385.412 646.182 375.809 601.28L321.655 593.906C311.438 592.514 306.83 580.352 313.559 572.54L388.158 485.94C394.302 478.808 405.754 480.367 409.767 488.882L458.495 592.275C462.891 601.603 455.198 612.09 444.982 610.699L418.244 607.058ZM156.108 546.351C169.885 527.389 194.975 505.132 225.279 485.913L230.079 512.468C231.913 522.614 244.264 526.689 251.777 519.627L335.052 441.333C341.91 434.885 339.854 423.512 331.173 419.873L225.759 375.686C216.249 371.7 206.106 379.841 207.94 389.988L217.662 443.769C177.925 466.779 143.268 495.971 123.748 522.839C71.8105 594.325 92.0072 697.539 168.858 753.374C245.709 809.209 350.112 796.523 402.049 725.038C403.466 723.087 404.87 721.057 406.259 718.952C398.627 706.074 391.545 690.98 385.355 674.513C380.35 684.995 375.047 694.151 369.689 701.526C332.31 752.973 253.594 765.495 192.37 721.013C131.145 676.531 118.73 597.798 156.108 546.351ZM280.865 264.957C253.223 242.075 224.301 225.091 202.011 217.848C141.531 198.197 70.4877 234.335 47.1021 306.308C23.7165 378.282 59.9505 449.276 120.43 468.927C129.1 471.744 139.447 473.958 150.962 475.479C137.214 486.454 125.048 497.855 115.158 509.093C112.727 508.422 110.362 507.714 108.069 506.969C24.0335 479.664 -20.2946 384.291 9.05984 293.948C38.4143 203.604 130.335 152.501 214.371 179.806C245.957 190.068 284.43 214.008 318.592 244.689L366.738 218.824C375.821 213.945 386.698 221.075 385.846 231.351L376.396 345.26C375.618 354.642 365.436 360.111 357.185 355.581L256.99 300.576C247.951 295.614 248.01 282.608 257.094 277.728L280.865 264.957ZM405.12 468C434.115 468 457.62 444.495 457.62 415.5C457.62 386.505 434.115 363 405.12 363C376.125 363 352.62 386.505 352.62 415.5C352.62 444.495 376.125 468 405.12 468Z" fill="white"/>
</svg>
